<svg width="159" height="120" viewBox="0 0 159 120" fill="none" xmlns="http://www.w3.org/2000/svg">
<path opacity="0.24" d="M157.918 72.7221C157.862 80.0081 156.905 87.4345 153.921 93.9397C152.024 98.0536 149.345 101.758 146.033 104.846C138.26 112.208 127.473 116.194 117.041 117.444C102.292 119.21 87.3724 116.702 72.5396 117.48C63.2832 117.969 54.0913 119.727 44.8236 119.972C35.5559 120.216 25.9264 118.789 18.0584 113.438C15.0693 111.381 12.4194 108.869 10.2044 105.992C7.33101 102.281 5.0887 98.1206 3.56784 93.6785C-2.34507 76.5954 2.53841 55.7345 15.2422 43.8589C20.2547 39.1682 26.2265 35.8791 32.1591 32.6996C44.5711 26.0736 65.4122 -20.1057 114.244 10.2293C123.781 16.1698 128.721 28.3347 137.153 36.0336C144.661 42.8871 153.177 49.5917 156.353 59.7061C157.665 63.8659 157.949 68.3319 157.918 72.7221Z" fill="#D9D9D9"/>
<path opacity="0.24" d="M146.033 104.847C138.26 112.208 127.472 116.194 117.04 117.444C102.292 119.211 87.3721 116.702 72.5393 117.481C63.2829 117.969 54.0909 119.728 44.8232 119.972C35.5556 120.216 25.9261 118.789 18.0581 113.439C15.0689 111.381 12.419 108.869 10.2041 105.993C10.9594 105.8 11.7256 105.653 12.4986 105.552C28.055 103.445 43.7994 103.192 59.4961 102.948L102.348 102.271C107.097 102.195 111.868 102.119 116.6 102.58C122.653 103.164 128.597 104.611 134.653 105.156C138.493 105.507 142.249 104.945 146.033 104.847Z" fill="#D9D9D9"/>
<path d="M119.04 105.757C90.0707 104.153 61.0356 104.127 32.0632 105.678C27.1685 105.939 22.1869 106.265 17.6147 108.037C19.8587 110.091 23.1967 110.254 26.2373 110.304C48.5182 110.664 70.801 110.763 93.0857 110.602C94.3928 110.602 96.1993 110.02 95.9412 108.734C95.8627 108.346 95.5793 107.998 95.6018 107.61C95.6439 106.894 96.5583 106.636 97.2848 106.602C99.2182 106.502 101.157 106.606 103.069 106.911C103.761 107.026 104.502 107.192 104.959 107.726C105.318 108.141 105.439 108.706 105.7 109.186C106.558 110.756 108.701 111.099 110.468 110.754C112.235 110.408 113.879 109.574 115.666 109.484C117.239 109.402 118.777 109.911 120.314 110.268C125.337 111.43 130.574 111.001 135.71 110.565C141.04 110.113 141.152 106.425 135.839 106.13C130.263 105.83 124.628 106.068 119.04 105.757Z" fill="url(#paint0_linear_2189_1971)"/>
<path d="M138.883 67.5153L136.479 54.3701H139.78C139.78 54.3701 140.538 64.8862 140.902 67.7372L138.883 67.5153Z" fill="#F5C7C8"/>
<path d="M140.734 66.7931C140.734 66.7931 141.197 68.8435 140.925 69.9867C140.653 71.1299 139.523 72.4612 138.883 72.5399C138.243 72.6185 137.851 72.304 137.898 71.8686C137.946 71.4332 139.581 69.8856 139.329 69.394C139.077 68.9025 138.431 70.3968 138.207 70.0345C137.983 69.6721 138.078 69.1104 138.642 68.3997C139.206 67.6891 138.642 66.6976 138.642 66.6976C138.642 66.6976 140.336 65.9449 140.734 66.7931Z" fill="#F5C7C8"/>
<path d="M134.291 27.1186C134.978 26.6102 136.375 26.7843 137.068 27.0624C137.568 27.2666 138.014 27.583 138.373 27.9872C138.731 28.3914 138.992 28.8726 139.135 29.3937C139.26 29.8823 139.296 30.3894 139.242 30.8908C139.141 31.9946 138.667 33.1097 137.772 33.767C135.898 35.1377 134.743 33.8653 134.187 32.1548C133.833 31.1873 133.72 30.1481 133.856 29.1269C133.957 28.3545 133.604 27.7449 134.201 27.1916L134.291 27.1186Z" fill="#606161"/>
<path d="M134.291 27.1186C134.978 26.6102 136.375 26.7843 137.068 27.0624C137.568 27.2666 138.014 27.583 138.373 27.9872C138.731 28.3914 138.992 28.8726 139.135 29.3937C139.26 29.8823 139.296 30.3894 139.242 30.8908C139.141 31.9946 138.667 33.1097 137.772 33.767C135.898 35.1377 134.743 33.8653 134.187 32.1548C133.833 31.1873 133.72 30.1481 133.856 29.1269C133.957 28.3545 133.604 27.7449 134.201 27.1916L134.291 27.1186Z" fill="url(#paint1_linear_2189_1971)"/>
<path d="M130.364 36.7559C133.233 36.7559 135.559 33.851 135.559 30.2676C135.559 26.6842 133.233 23.7793 130.364 23.7793C127.495 23.7793 125.169 26.6842 125.169 30.2676C125.169 33.851 127.495 36.7559 130.364 36.7559Z" fill="#606161"/>
<path d="M113.879 48.1675C113.879 48.1675 112.926 46.4822 112.513 46.2323C112.101 45.9823 111.369 45.2885 111.156 45.4458C110.771 45.7267 112.426 47.1985 110.951 47.0889C110.718 47.0693 109.534 47.0889 108.962 47.6254C108.85 47.7322 108.761 47.8615 108.703 48.0049C108.644 48.1484 108.616 48.3026 108.621 48.4576C108.626 48.6125 108.664 48.7646 108.732 48.9039C108.8 49.0432 108.897 49.1665 109.015 49.2658C109.403 49.5298 110.732 49.6534 111.45 49.6309C112.168 49.6084 113.01 49.7124 113.498 50.0073" fill="#F5C7C8"/>
<path d="M124.059 41.0166C124.059 41.0166 123.377 43.1625 123.31 44.3226C123.242 45.4826 122.698 50.3558 122.516 50.5946C122.334 50.8333 113.604 47.8616 113.604 47.8616C113.604 47.8616 113.077 48.606 113.498 50.0075C113.498 50.0075 119.98 55.8807 123.904 56.111C127.829 56.3414 127.324 47.0358 127.324 47.0358" fill="#F5C7C8"/>
<path d="M131.736 102.257L131.015 103.889C131.441 103.743 133.484 105.386 134.404 105.389C135.009 105.364 135.591 105.151 136.07 104.78L135.492 101.822L134.462 87.1797L128.928 87.983L131.736 102.257Z" fill="#F5C7C8"/>
<path d="M121.068 102.136L120.005 103.133C120.454 103.1 122.022 105.201 122.914 105.434C123.507 105.56 124.124 105.499 124.681 105.26L124.855 102.249L125.977 88.6963L120.521 89.2328L121.068 102.136Z" fill="#F5C7C8"/>
<path d="M132.395 34.5957L132.617 39.3089C132.37 39.6684 132.032 39.9556 131.637 40.1408C131.243 40.3259 130.806 40.4023 130.373 40.3622C128.1 40.1094 128.199 39.4353 128.199 39.4353C128.199 39.4353 128.199 36.0338 128.109 35.2726" fill="#F5C7C8"/>
<path d="M131.854 36.1291L132.378 35.1797L128.112 35.6544C128.145 35.9353 128.168 36.6206 128.179 37.3396C128.842 37.5366 129.549 37.5262 130.205 37.3099C130.862 37.0935 131.437 36.6816 131.854 36.1291Z" fill="#DBB4AF"/>
<path d="M135.755 68.7112C135.755 68.7112 136.44 81.6766 137.351 92.1702C137.351 92.1702 124.83 93.9763 119.716 91.968C119.716 91.968 120.816 71.0594 121.046 68.0596L135.755 68.7112Z" fill="#606161"/>
<path d="M135.755 68.7112C135.755 68.7112 136.44 81.6766 137.351 92.1702C137.351 92.1702 124.83 93.9763 119.716 91.968C119.716 91.968 120.816 71.0594 121.046 68.0596L135.755 68.7112Z" fill="url(#paint2_linear_2189_1971)"/>
<path d="M135.758 40.7443C135.758 40.7443 135.736 39.8174 132.53 39.7893C130.193 39.7669 129.377 39.5759 127.716 39.8933C124.687 40.4719 124.35 40.6601 123.887 41.0533C122.791 41.9999 120.931 67.4559 120.931 67.4559C120.931 67.4559 119.071 70.5119 128.701 71.495C132.263 71.8601 135.713 69.3884 135.713 69.3884L135.758 40.7443Z" fill="#D9D9D9"/>
<path d="M134.168 26.9645C134.168 26.9645 133.98 33.0006 132.227 35.0651C130.378 37.2447 129.326 37.5115 127.082 36.6212C125.175 35.86 124.948 30.6328 124.883 29.1273C124.718 25.2203 130.698 21.8553 134.168 26.9645Z" fill="#F5C7C8"/>
<path d="M135.562 44.8789L135.702 69.3772L133.489 70.6552L133.093 49.0163L135.562 44.8789Z" fill="url(#paint3_linear_2189_1971)"/>
<path d="M133.699 38.7414L133.741 39.8452C133.744 39.9331 133.722 40.02 133.677 40.0957C133.633 40.1713 133.567 40.2326 133.489 40.2722C133.489 40.2722 131.761 40.8592 128.768 41.0165L126.569 40.4548C126.49 40.4217 126.422 40.3671 126.372 40.297C126.322 40.227 126.293 40.1444 126.288 40.0587L126.258 39.511C126.251 39.3934 126.289 39.2778 126.365 39.1875C126.44 39.0972 126.548 39.0392 126.664 39.0251L133.175 38.2864C133.24 38.2776 133.306 38.2828 133.369 38.3016C133.432 38.3204 133.49 38.3524 133.539 38.3954C133.589 38.4384 133.629 38.4915 133.656 38.5512C133.684 38.6108 133.699 38.6757 133.699 38.7414Z" fill="#D9D9D9"/>
<path d="M133.699 38.7414L133.741 39.8452C133.744 39.9331 133.722 40.02 133.677 40.0957C133.633 40.1713 133.567 40.2326 133.489 40.2722C133.489 40.2722 131.761 40.8592 128.768 41.0165L126.569 40.4548C126.49 40.4217 126.422 40.3671 126.372 40.297C126.322 40.227 126.293 40.1444 126.288 40.0587L126.258 39.511C126.251 39.3934 126.289 39.2778 126.365 39.1875C126.44 39.0972 126.548 39.0392 126.664 39.0251L133.175 38.2864C133.24 38.2776 133.306 38.2828 133.369 38.3016C133.432 38.3204 133.49 38.3524 133.539 38.3954C133.589 38.4384 133.629 38.4915 133.656 38.5512C133.684 38.6108 133.699 38.6757 133.699 38.7414Z" fill="url(#paint4_linear_2189_1971)"/>
<path d="M133.472 30.7931C133.472 30.7931 133.567 29.8831 134.462 30.2763C135.357 30.6696 134.516 32.2425 134.168 32.6835C133.82 33.1244 133.152 32.984 133.152 32.984" fill="#F5C7C8"/>
<path d="M134.886 26.5996L135.242 28.0264H134.659L134.168 25.8496L134.886 26.5996Z" fill="#4EAE93"/>
<path d="M135.638 40.4917C135.638 40.4917 136.956 41.7332 139.382 47.5614C140.373 49.9433 141.2 54.3783 141.2 54.3783C141.2 54.3783 137.817 56.117 135.823 56.117C134.931 50.9348 132.788 48.9265 132.39 46.5362C131.991 44.1459 134.432 40.031 135.638 40.4917Z" fill="#D9D9D9"/>
<path d="M118.35 103.422C117.373 103.699 116.51 104.281 115.888 105.085C115.64 105.401 115.489 105.783 115.453 106.183C115.438 106.383 115.478 106.583 115.568 106.762C115.659 106.941 115.796 107.091 115.966 107.197C116.202 107.302 116.459 107.352 116.718 107.343C119.115 107.444 121.515 107.402 123.907 107.217C124.008 107.222 124.108 107.206 124.202 107.169C124.295 107.131 124.379 107.074 124.448 107.001C124.512 106.874 124.535 106.731 124.516 106.591L124.448 105.085C124.46 104.917 124.417 104.749 124.325 104.608C124.058 104.282 123.54 104.554 123.122 104.532C122.28 104.487 122.067 103.439 121.374 103.15C120.583 102.818 119.141 103.181 118.35 103.422Z" fill="#D9D9D9"/>
<path d="M130.028 103.335C129.049 103.609 128.186 104.193 127.565 104.998C127.316 105.314 127.164 105.695 127.127 106.096C127.113 106.296 127.153 106.496 127.244 106.674C127.335 106.852 127.473 107.002 127.643 107.107C127.88 107.213 128.137 107.264 128.395 107.256C130.792 107.358 133.193 107.315 135.584 107.127C135.67 107.146 135.758 107.144 135.842 107.119C135.926 107.094 136.002 107.049 136.063 106.986C136.124 106.923 136.168 106.846 136.191 106.762C136.214 106.677 136.214 106.588 136.193 106.503L136.126 104.995C136.137 104.828 136.094 104.661 136.002 104.52C135.736 104.195 135.217 104.467 134.796 104.445C133.955 104.4 133.744 103.352 133.052 103.06C132.246 102.728 130.808 103.091 130.028 103.335Z" fill="#D9D9D9"/>
<path d="M118.35 103.422C117.373 103.699 116.51 104.281 115.888 105.085C115.64 105.401 115.489 105.783 115.453 106.183C115.438 106.383 115.478 106.583 115.568 106.762C115.659 106.941 115.796 107.091 115.966 107.197C116.202 107.302 116.459 107.352 116.718 107.343C119.115 107.444 121.515 107.402 123.907 107.217C124.008 107.222 124.108 107.206 124.202 107.169C124.295 107.131 124.379 107.074 124.448 107.001C124.512 106.874 124.535 106.731 124.516 106.591L124.448 105.085C124.46 104.917 124.417 104.749 124.325 104.608C124.058 104.282 123.54 104.554 123.122 104.532C122.28 104.487 122.067 103.439 121.374 103.15C120.583 102.818 119.141 103.181 118.35 103.422Z" fill="url(#paint5_linear_2189_1971)"/>
<path d="M130.028 103.335C129.049 103.609 128.186 104.193 127.565 104.998C127.316 105.314 127.164 105.695 127.127 106.096C127.113 106.296 127.153 106.496 127.244 106.674C127.335 106.852 127.473 107.002 127.643 107.107C127.88 107.213 128.137 107.264 128.395 107.256C130.792 107.358 133.193 107.315 135.584 107.127C135.67 107.146 135.758 107.144 135.842 107.119C135.926 107.094 136.002 107.049 136.063 106.986C136.124 106.923 136.168 106.846 136.191 106.762C136.214 106.677 136.214 106.588 136.193 106.503L136.126 104.995C136.137 104.828 136.094 104.661 136.002 104.52C135.736 104.195 135.217 104.467 134.796 104.445C133.955 104.4 133.744 103.352 133.052 103.06C132.246 102.728 130.808 103.091 130.028 103.335Z" fill="url(#paint6_linear_2189_1971)"/>
<path d="M125.01 25.5603C124.917 25.7261 124.83 25.9002 124.743 26.0856C124.507 26.575 124.394 27.1152 124.415 27.6585C124.415 27.8832 124.85 28.9562 124.808 29.0432C125.386 27.8879 126.243 26.8955 127.301 26.1558C127.7 27.0574 128.667 27.5405 129.545 27.9647C130.423 28.3888 131.397 28.9084 131.739 29.8353C131.977 30.4701 131.888 31.2397 132.3 31.7762C133.318 31.6386 133.54 29.9926 134.544 29.81C134.726 29.7763 134.917 29.81 135.105 29.7595C135.332 29.6926 135.532 29.5556 135.677 29.3679C135.821 29.1802 135.903 28.9516 135.91 28.7146C136.067 26.5884 133.492 24.6138 131.773 23.9032C130.977 23.5656 130.121 23.3916 129.256 23.3916C128.392 23.3916 127.536 23.5656 126.74 23.9032C125.989 24.2371 125.376 24.8231 125.01 25.5603Z" fill="#606161"/>
<path d="M125.01 25.5603C124.917 25.7261 124.83 25.9002 124.743 26.0856C124.507 26.575 124.394 27.1152 124.415 27.6585C124.415 27.8832 124.85 28.9562 124.808 29.0432C125.386 27.8879 126.243 26.8955 127.301 26.1558C127.7 27.0574 128.667 27.5405 129.545 27.9647C130.423 28.3888 131.397 28.9084 131.739 29.8353C131.977 30.4701 131.888 31.2397 132.3 31.7762C133.318 31.6386 133.54 29.9926 134.544 29.81C134.726 29.7763 134.917 29.81 135.105 29.7595C135.332 29.6926 135.532 29.5556 135.677 29.3679C135.821 29.1802 135.903 28.9516 135.91 28.7146C136.067 26.5884 133.492 24.6138 131.773 23.9032C130.977 23.5656 130.121 23.3916 129.256 23.3916C128.392 23.3916 127.536 23.5656 126.74 23.9032C125.989 24.2371 125.376 24.8231 125.01 25.5603Z" fill="url(#paint7_linear_2189_1971)"/>
<path d="M80.5643 15.5322H28.9946C26.519 15.5322 24.5122 17.5418 24.5122 20.0207V103.689C24.5122 106.168 26.519 108.177 28.9946 108.177H80.5643C83.0398 108.177 85.0466 106.168 85.0466 103.689V20.0207C85.0466 17.5418 83.0398 15.5322 80.5643 15.5322Z" fill="#D9D9D9"/>
<path d="M82.284 15.5322H30.7143C28.2388 15.5322 26.2319 17.5418 26.2319 20.0207V103.689C26.2319 106.168 28.2388 108.177 30.7143 108.177H82.284C84.7595 108.177 86.7663 106.168 86.7663 103.689V20.0207C86.7663 17.5418 84.7595 15.5322 82.284 15.5322Z" fill="#D9D9D9"/>
<path d="M82.284 15.5322H30.7143C28.2388 15.5322 26.2319 17.5418 26.2319 20.0207V103.689C26.2319 106.168 28.2388 108.177 30.7143 108.177H82.284C84.7595 108.177 86.7663 106.168 86.7663 103.689V20.0207C86.7663 17.5418 84.7595 15.5322 82.284 15.5322Z" fill="url(#paint8_linear_2189_1971)"/>
<path d="M30.8574 68.8265L32.4422 20.0322L78.2617 21.0013C78.2617 21.0013 72.2702 71.6494 76.5002 84.7215C80.7301 97.7936 81.4341 102.698 81.4341 102.698L31.9149 104.102L30.8574 68.8265Z" fill="url(#paint9_linear_2189_1971)"/>
<path d="M89.6722 98.3835L39.5807 98.9143C39.5807 98.9143 34.4308 68.9529 33.536 58.9087C32.658 49.2324 32.4561 20.0322 32.4561 20.0322H80.2895C80.2895 20.0322 80.4101 48.3308 81.2572 57.7065C82.1941 68.0513 89.6722 98.3835 89.6722 98.3835Z" fill="white"/>
<path d="M112.028 19.5011L108.62 11.7545L108.34 11.0972C108.33 11.0762 108.313 11.0593 108.292 11.0495C108.274 11.0313 108.252 11.0177 108.228 11.0101C108.204 11.0024 108.178 11.0009 108.153 11.0056C108.128 11.0103 108.104 11.0212 108.085 11.0372C108.065 11.0531 108.049 11.0738 108.039 11.0972L104.348 19.5011C104.273 19.6787 104.234 19.8699 104.236 20.0629V101.209H112.14V20.0657C112.142 19.8718 112.104 19.6795 112.028 19.5011ZM112.076 101.161H104.281V99.4393H112.076V101.161Z" fill="#D9D9D9"/>
<path d="M110.78 20.0657V99.4393H105.935V20.0544C105.932 19.8651 105.954 19.6762 106 19.4927L108.264 11.0888C108.263 11.0713 108.269 11.0544 108.28 11.041C108.328 10.9652 108.412 10.9848 108.44 11.0888L108.62 11.746L110.704 19.4927C110.755 19.6794 110.78 19.8721 110.78 20.0657Z" fill="url(#paint10_linear_2189_1971)"/>
<path d="M105.936 101.161H110.78V107.009C110.78 107.779 110.393 108.399 109.924 108.399H106.78C106.309 108.399 105.938 107.779 105.938 107.009L105.936 101.161Z" fill="url(#paint11_linear_2189_1971)"/>
<path d="M112.14 20.0656C110.909 20.6669 109.558 20.9794 108.188 20.9794C106.818 20.9794 105.467 20.6669 104.236 20.0656L106.564 14.9705L108.328 11.1084L109.849 14.6896L112.14 20.0656Z" fill="url(#paint12_linear_2189_1971)"/>
<path d="M109.849 14.6789C108.822 15.1605 107.657 15.2601 106.564 14.9597L108.328 11.0977L109.849 14.6789Z" fill="#D9D9D9"/>
<path d="M109.849 14.6783C108.727 15.24 107.324 15.1445 106.376 14.9198L108.149 10.7656L109.849 14.6783Z" fill="url(#paint13_linear_2189_1971)"/>
<path d="M61.5214 29.9141H37.909C37.4706 29.9141 37.1152 30.2693 37.1152 30.7075C37.1152 31.1458 37.4706 31.501 37.909 31.501H61.5214C61.9598 31.501 62.3152 31.1458 62.3152 30.7075C62.3152 30.2693 61.9598 29.9141 61.5214 29.9141Z" fill="#D9D9D9"/>
<path d="M61.5214 32.6494H37.909C37.4706 32.6494 37.1152 33.0047 37.1152 33.4429C37.1152 33.8811 37.4706 34.2364 37.909 34.2364H61.5214C61.9598 34.2364 62.3152 33.8811 62.3152 33.4429C62.3152 33.0047 61.9598 32.6494 61.5214 32.6494Z" fill="#D9D9D9"/>
<path d="M61.5214 35.3848H37.909C37.4706 35.3848 37.1152 35.74 37.1152 36.1782C37.1152 36.6165 37.4706 36.9717 37.909 36.9717H61.5214C61.9598 36.9717 62.3152 36.6165 62.3152 36.1782C62.3152 35.74 61.9598 35.3848 61.5214 35.3848Z" fill="#D9D9D9"/>
<path d="M61.6644 38.1211H46.0126C45.6532 38.1211 45.3618 38.4128 45.3618 38.7727V39.0564C45.3618 39.4163 45.6532 39.7081 46.0126 39.7081H61.6644C62.0238 39.7081 62.3152 39.4163 62.3152 39.0564V38.7727C62.3152 38.4128 62.0238 38.1211 61.6644 38.1211Z" fill="#D9D9D9"/>
<path d="M61.7851 47.252H38.1727C37.7343 47.252 37.3789 47.6072 37.3789 48.0454C37.3789 48.4837 37.7343 48.8389 38.1727 48.8389H61.7851C62.2235 48.8389 62.5789 48.4837 62.5789 48.0454C62.5789 47.6072 62.2235 47.252 61.7851 47.252Z" fill="#D9D9D9"/>
<path d="M61.7851 49.9883H38.1727C37.7343 49.9883 37.3789 50.3435 37.3789 50.7818C37.3789 51.22 37.7343 51.5752 38.1727 51.5752H61.7851C62.2235 51.5752 62.5789 51.22 62.5789 50.7818C62.5789 50.3435 62.2235 49.9883 61.7851 49.9883Z" fill="#D9D9D9"/>
<path d="M61.7851 52.7207H38.1727C37.7343 52.7207 37.3789 53.076 37.3789 53.5142C37.3789 53.9524 37.7343 54.3077 38.1727 54.3077H61.7851C62.2235 54.3077 62.5789 53.9524 62.5789 53.5142C62.5789 53.076 62.2235 52.7207 61.7851 52.7207Z" fill="#D9D9D9"/>
<path d="M61.9281 55.457H46.2762C45.9168 55.457 45.6255 55.7488 45.6255 56.1087V56.3924C45.6255 56.7522 45.9168 57.044 46.2762 57.044H61.9281C62.2875 57.044 62.5788 56.7522 62.5788 56.3924V56.1087C62.5788 55.7488 62.2875 55.457 61.9281 55.457Z" fill="#D9D9D9"/>
<path d="M63.5832 65.3832H39.9681C39.7493 65.3766 39.5397 65.2934 39.3758 65.1482C39.2118 65.003 39.1038 64.8049 39.0705 64.5883C39.0533 64.4893 39.0584 64.3878 39.0854 64.291C39.1123 64.1942 39.1604 64.1047 39.2262 64.0289C39.292 63.953 39.3739 63.8928 39.4658 63.8526C39.5577 63.8123 39.6574 63.7931 39.7577 63.7962H63.3701C63.5891 63.8016 63.7993 63.8838 63.9638 64.0286C64.1284 64.1734 64.237 64.3715 64.2705 64.5883C64.2875 64.6874 64.2824 64.7891 64.2555 64.886C64.2285 64.9829 64.1805 65.0726 64.1147 65.1486C64.049 65.2247 63.9672 65.2851 63.8753 65.3257C63.7834 65.3663 63.6836 65.3859 63.5832 65.3832Z" fill="#D9D9D9"/>
<path d="M63.9476 68.1131H40.3324C40.1105 68.108 39.8976 68.0241 39.7317 67.8765C39.5657 67.7289 39.4575 67.527 39.4264 67.307C39.4098 67.2081 39.4153 67.1067 39.4424 67.0102C39.4695 66.9136 39.5177 66.8243 39.5834 66.7486C39.6491 66.6729 39.7307 66.6127 39.8223 66.5723C39.914 66.5318 40.0135 66.5123 40.1136 66.5149H63.7288C63.9471 66.5214 64.1564 66.6041 64.3203 66.7488C64.4842 66.8934 64.5924 67.0909 64.6264 67.307C64.6451 67.4062 64.6416 67.5083 64.616 67.606C64.5904 67.7037 64.5434 67.7944 64.4784 67.8716C64.4134 67.9488 64.332 68.0106 64.2402 68.0523C64.1483 68.0941 64.0484 68.1148 63.9476 68.1131Z" fill="#D9D9D9"/>
<path d="M64.3122 70.8431H40.697C40.4786 70.8366 40.2694 70.7538 40.1055 70.6092C39.9416 70.4646 39.8333 70.2671 39.7994 70.051C39.7824 69.9519 39.7875 69.8502 39.8144 69.7533C39.8413 69.6564 39.8894 69.5667 39.9552 69.4907C40.0209 69.4147 40.1027 69.3542 40.1946 69.3136C40.2865 69.273 40.3862 69.2534 40.4866 69.2561H64.1102C64.329 69.2627 64.5386 69.3459 64.7025 69.4911C64.8665 69.6363 64.9745 69.8344 65.0078 70.051C65.0246 70.1506 65.0189 70.2527 64.9913 70.3499C64.9637 70.4471 64.9148 70.5369 64.8482 70.6127C64.7815 70.6886 64.6989 70.7486 64.6061 70.7885C64.5134 70.8283 64.413 70.847 64.3122 70.8431Z" fill="#D9D9D9"/>
<path d="M64.8203 73.5736H49.1685C48.9893 73.5686 48.8174 73.501 48.6827 73.3825C48.548 73.264 48.4589 73.1021 48.4308 72.9248L48.3915 72.6439C48.3784 72.5629 48.3831 72.4801 48.4054 72.4012C48.4277 72.3223 48.4669 72.2493 48.5204 72.1872C48.5738 72.1251 48.6402 72.0754 48.7149 72.0418C48.7895 72.0081 48.8706 71.9912 48.9525 71.9922H64.6071C64.7868 71.9973 64.959 72.0653 65.0937 72.1844C65.2285 72.3034 65.3174 72.466 65.3448 72.6439L65.3813 72.9248C65.394 73.0055 65.3889 73.088 65.3664 73.1665C65.3439 73.2451 65.3046 73.3178 65.2512 73.3796C65.1978 73.4413 65.1316 73.4907 65.0572 73.5242C64.9827 73.5577 64.9019 73.5746 64.8203 73.5736Z" fill="#D9D9D9"/>
<path d="M66.4496 82.7553H42.8344C42.61 82.7457 42.3953 82.6615 42.2241 82.516C42.0529 82.3705 41.935 82.1721 41.8891 81.952C41.8648 81.8553 41.8632 81.7544 41.8844 81.657C41.9056 81.5596 41.949 81.4685 42.0112 81.3907C42.0734 81.3129 42.1527 81.2506 42.243 81.2086C42.3332 81.1666 42.432 81.1461 42.5314 81.1487H66.1466C66.3709 81.1583 66.5857 81.2425 66.7569 81.3879C66.9281 81.5334 67.046 81.7319 67.0919 81.952C67.1168 82.0487 67.1188 82.1498 67.0979 82.2474C67.0769 82.3451 67.0336 82.4365 66.9713 82.5144C66.9089 82.5924 66.8294 82.6547 66.7388 82.6965C66.6483 82.7383 66.5492 82.7584 66.4496 82.7553Z" fill="#D9D9D9"/>
<path d="M66.9745 85.514H43.3537C43.129 85.5042 42.914 85.4196 42.7428 85.2736C42.5715 85.1275 42.4539 84.9284 42.4085 84.7079C42.3837 84.6114 42.3816 84.5105 42.4024 84.4131C42.4232 84.3157 42.4663 84.2244 42.5283 84.1466C42.5903 84.0687 42.6695 84.0063 42.7597 83.9643C42.8499 83.9223 42.9486 83.9018 43.048 83.9045H66.6632C66.8876 83.9137 67.1026 83.9977 67.2739 84.1432C67.4452 84.2888 67.563 84.4876 67.6085 84.7079C67.6336 84.804 67.6362 84.9047 67.6159 85.0021C67.5957 85.0994 67.5532 85.1907 67.4917 85.2688C67.4303 85.3469 67.3517 85.4097 67.2619 85.4523C67.1722 85.4948 67.0738 85.5159 66.9745 85.514Z" fill="#D9D9D9"/>
<path d="M67.4961 88.283H43.881C43.6566 88.2734 43.4419 88.1892 43.2707 88.0438C43.0995 87.8983 42.9816 87.6998 42.9357 87.4797C42.9134 87.3838 42.9134 87.2841 42.9355 87.1882C42.9576 87.0923 43.0013 87.0027 43.0633 86.9263C43.1253 86.8499 43.2038 86.7886 43.2931 86.7473C43.3823 86.7059 43.4797 86.6855 43.578 86.6877H67.196C67.4206 86.6979 67.6354 86.7827 67.8065 86.9286C67.9777 87.0746 68.0954 87.2734 68.1413 87.4938C68.1631 87.5897 68.1628 87.6894 68.1403 87.7851C68.1178 87.8809 68.0737 87.9703 68.0115 88.0464C67.9493 88.1225 67.8705 88.1834 67.7812 88.2244C67.6919 88.2655 67.5944 88.2855 67.4961 88.283Z" fill="#D9D9D9"/>
<path d="M68.1607 91.0527H52.5088C52.3251 91.0429 52.1496 90.973 52.0092 90.8538C51.8689 90.7346 51.7715 90.5726 51.7319 90.3926L51.6786 90.1117C51.6579 90.0324 51.6561 89.9494 51.6733 89.8693C51.6904 89.7892 51.726 89.7142 51.7772 89.6504C51.8285 89.5865 51.8939 89.5355 51.9684 89.5015C52.0428 89.4675 52.1241 89.4514 52.2059 89.4545H67.8577C68.0406 89.4647 68.2152 89.5344 68.3549 89.6531C68.4946 89.7717 68.5919 89.9327 68.6319 90.1117L68.688 90.3926C68.7085 90.472 68.7103 90.5551 68.6931 90.6354C68.676 90.7156 68.6404 90.7907 68.5893 90.8548C68.5381 90.9188 68.4727 90.9701 68.3983 91.0044C68.3239 91.0388 68.2425 91.0553 68.1607 91.0527Z" fill="#D9D9D9"/>
<path d="M73.4569 41.5449H68.7501C67.8479 41.5442 66.9829 41.185 66.345 40.5462C65.7071 39.9074 65.3484 39.0412 65.3477 38.1378V33.0399C65.3484 32.1365 65.7071 31.2703 66.345 30.6315C66.9829 29.9928 67.8479 29.6336 68.7501 29.6328H73.4569C74.359 29.6336 75.224 29.9928 75.8619 30.6315C76.4999 31.2703 76.8586 32.1365 76.8593 33.0399V38.1491C76.8556 39.0505 76.4956 39.9138 75.858 40.5502C75.2204 41.1865 74.3571 41.5442 73.4569 41.5449ZM68.7501 30.5597C68.0964 30.5605 67.4697 30.8208 67.0075 31.2837C66.5453 31.7465 66.2853 32.3741 66.2845 33.0286V38.1378C66.2853 38.7924 66.5453 39.42 67.0075 39.8828C67.4697 40.3457 68.0964 40.606 68.7501 40.6068H73.4569C74.1103 40.606 74.7367 40.3456 75.1985 39.8826C75.6603 39.4197 75.9197 38.7921 75.9197 38.1378V33.0399C75.9197 32.3856 75.6603 31.758 75.1985 31.2951C74.7367 30.8321 74.1103 30.5717 73.4569 30.571L68.7501 30.5597Z" fill="#D9D9D9"/>
<path d="M74.6938 59.086H70.0011C69.1251 59.0869 68.2825 58.7491 67.6492 58.1431C67.0158 57.5371 66.6405 56.7097 66.6014 55.8334L66.377 50.8282C66.3562 50.3681 66.4287 49.9087 66.5901 49.4775C66.7516 49.0463 66.9986 48.6524 67.3164 48.3195C67.6341 47.9866 68.016 47.7217 68.4388 47.5407C68.8617 47.3598 69.3168 47.2665 69.7767 47.2666H74.475C75.3483 47.2701 76.1867 47.6103 76.8161 48.2165C77.4455 48.8227 77.8175 49.6483 77.855 50.522L78.0822 55.5245C78.1031 55.9845 78.0306 56.4439 77.8692 56.8751C77.7077 57.3063 77.4606 57.7002 77.1429 58.0331C76.8251 58.366 76.4433 58.6309 76.0204 58.8119C75.5976 58.9928 75.1425 59.0861 74.6826 59.086H74.6938ZM69.7683 48.2075C69.4352 48.2072 69.1055 48.2745 68.7991 48.4054C68.4928 48.5363 68.2161 48.7281 67.9859 48.9691C67.7557 49.2102 67.5767 49.4954 67.4597 49.8077C67.3428 50.12 67.2903 50.4528 67.3055 50.786L67.5327 55.7913C67.5602 56.4257 67.8315 57.0248 68.29 57.4635C68.7485 57.9022 69.3586 58.1464 69.9927 58.1451H74.6938C75.0269 58.1454 75.3566 58.0781 75.6629 57.9472C75.9693 57.8163 76.2459 57.6245 76.4762 57.3835C76.7064 57.1424 76.8854 56.8572 77.0023 56.5449C77.1193 56.2326 77.1718 55.8998 77.1566 55.5666L76.9294 50.5641C76.9012 49.9292 76.6293 49.3298 76.1705 48.8907C75.7117 48.4517 75.1013 48.2069 74.4666 48.2075H69.7683Z" fill="#D9D9D9"/>
<path d="M71.4874 75.3094C70.6323 75.3099 69.8084 74.9875 69.1803 74.4064C68.5522 73.8254 68.166 73.0285 68.099 72.1748L67.6978 67.1836C67.6612 66.7246 67.7178 66.2629 67.8642 65.8263C68.0105 65.3898 68.2437 64.9875 68.5496 64.6436C68.8555 64.2998 69.2278 64.0216 69.644 63.8257C70.0602 63.6298 70.5117 63.5204 70.9713 63.5041L75.6696 63.3412C76.5419 63.3169 77.3907 63.6264 78.0431 64.2066C78.6955 64.7869 79.1026 65.5943 79.1815 66.4645L79.5826 71.4558C79.6188 71.9147 79.562 72.3763 79.4154 72.8126C79.2689 73.249 79.0357 73.6511 78.7299 73.9949C78.4241 74.3387 78.0519 74.6169 77.6359 74.8129C77.2199 75.0089 76.7686 75.1185 76.3092 75.1353L71.6108 75.2982L71.4874 75.3094ZM75.793 64.2793H75.7033L71.0049 64.4422C70.6722 64.4544 70.3453 64.5339 70.044 64.676C69.7428 64.818 69.4733 65.0196 69.2519 65.2686C69.0304 65.5176 68.8616 65.8089 68.7555 66.125C68.6495 66.4411 68.6084 66.7754 68.6347 67.1078L69.0358 72.099C69.0887 72.7312 69.3817 73.3189 69.8545 73.7412C70.3273 74.1634 70.9439 74.388 71.5771 74.3685L76.2755 74.2028C76.6083 74.1913 76.9352 74.1124 77.2367 73.9708C77.5381 73.8292 77.8078 73.6279 78.0293 73.379C78.2509 73.1301 78.4197 72.8389 78.5257 72.5228C78.6316 72.2067 78.6725 71.8724 78.6457 71.54L78.2446 66.5488C78.1966 65.9309 77.9174 65.3538 77.4629 64.9331C77.0084 64.5123 76.412 64.2789 75.793 64.2793Z" fill="#D9D9D9"/>
<path d="M75.176 91.8498C74.3671 91.8499 73.5846 91.5621 72.968 91.0378C72.3515 90.5135 71.941 89.7869 71.81 88.9877L71.0246 84.1229C70.9471 83.6454 70.9719 83.157 71.0975 82.6899C71.2231 82.2229 71.4466 81.788 71.7531 81.4141C72.0595 81.0403 72.442 80.736 72.875 80.5217C73.308 80.3073 73.7816 80.1877 74.2644 80.1709L78.9206 80.008C79.7472 79.9867 80.5537 80.2643 81.1924 80.7899C81.8312 81.3156 82.2595 82.0541 82.3988 82.8701L83.1842 87.735C83.2613 88.2123 83.2361 88.7006 83.1103 89.1675C82.9845 89.6343 82.761 90.069 82.4546 90.4428C82.1482 90.8165 81.766 91.1207 81.3332 91.3352C80.9004 91.5497 80.427 91.6696 79.9445 91.6869L75.2854 91.847L75.176 91.8498ZM79.0469 80.9461H78.9599L74.3036 81.109C73.9547 81.1224 73.6126 81.2099 73.2999 81.3656C72.9873 81.5214 72.7113 81.7418 72.4901 82.0124C72.2689 82.283 72.1077 82.5975 72.017 82.9352C71.9264 83.2729 71.9084 83.626 71.9643 83.9712L72.7525 88.836C72.8546 89.4275 73.1659 89.9623 73.6294 90.3429C74.093 90.7235 74.6777 90.9244 75.277 90.9089L79.9332 90.746C80.2827 90.7342 80.6256 90.648 80.9392 90.493C81.2527 90.3381 81.5296 90.118 81.7515 89.8474C81.9734 89.5768 82.1352 89.262 82.226 88.9239C82.3168 88.5858 82.3346 88.2322 82.2782 87.8866L81.4928 83.019C81.398 82.4386 81.0997 81.911 80.6514 81.5311C80.2031 81.1512 79.6342 80.9438 79.0469 80.9461Z" fill="#D9D9D9"/>
<path d="M68.7076 18.1787H45.875C44.9533 18.1787 44.2061 18.9269 44.2061 19.8499V22.4621C44.2061 23.3851 44.9533 24.1333 45.875 24.1333H68.7076C69.6294 24.1333 70.3766 23.3851 70.3766 22.4621V19.8499C70.3766 18.9269 69.6294 18.1787 68.7076 18.1787Z" fill="#D9D9D9"/>
<path d="M68.7076 18.1787H45.875C44.9533 18.1787 44.2061 18.9269 44.2061 19.8499V22.4621C44.2061 23.3851 44.9533 24.1333 45.875 24.1333H68.7076C69.6294 24.1333 70.3766 23.3851 70.3766 22.4621V19.8499C70.3766 18.9269 69.6294 18.1787 68.7076 18.1787Z" fill="url(#paint14_linear_2189_1971)"/>
<path d="M71.2882 39.3957L67.1761 35.2864C67.0454 35.1555 66.9416 35 66.8709 34.829C66.8001 34.6579 66.7637 34.4745 66.7637 34.2893C66.7637 34.1041 66.8001 33.9208 66.8709 33.7497C66.9416 33.5786 67.0454 33.4231 67.1761 33.2922C67.3069 33.1612 67.4621 33.0574 67.633 32.9865C67.8038 32.9156 67.987 32.8792 68.1719 32.8792C68.3568 32.8792 68.54 32.9156 68.7108 32.9865C68.8817 33.0574 69.0369 33.1612 69.1677 33.2922L71.1312 35.2583L77.7201 27.6269C77.9645 27.3438 78.3111 27.1695 78.6838 27.1424C79.0565 27.1153 79.4247 27.2375 79.7074 27.4822C79.9901 27.7269 80.1641 28.0741 80.1912 28.4473C80.2183 28.8205 80.0962 29.1892 79.8519 29.4722L71.2882 39.3957Z" fill="#D9D9D9"/>
<path d="M73.2268 56.5126L69.1175 52.3978C68.9868 52.2668 68.883 52.1114 68.8123 51.9403C68.7415 51.7692 68.7051 51.5858 68.7051 51.4006C68.7051 51.2155 68.7415 51.0321 68.8123 50.861C68.883 50.6899 68.9868 50.5345 69.1175 50.4035C69.2483 50.2726 69.4035 50.1687 69.5744 50.0978C69.7453 50.027 69.9284 49.9905 70.1133 49.9905C70.2982 49.9905 70.4814 50.027 70.6522 50.0978C70.8231 50.1687 70.9783 50.2726 71.1091 50.4035L73.0726 52.3697L79.6615 44.7382C79.9059 44.4551 80.2525 44.2808 80.6252 44.2537C80.9979 44.2266 81.3661 44.3488 81.6488 44.5935C81.9315 44.8382 82.1055 45.1854 82.1326 45.5586C82.1597 45.9318 82.0377 46.3005 81.7933 46.5836L73.2268 56.5126Z" fill="#D9D9D9"/>
<path d="M74.6374 72.8349L70.5253 68.7116C70.2612 68.4472 70.1128 68.0885 70.1128 67.7145C70.1128 67.3405 70.2612 66.9818 70.5253 66.7174C70.7893 66.4529 71.1475 66.3044 71.521 66.3044C71.8945 66.3044 72.2527 66.4529 72.5168 66.7174L74.4803 68.6835L81.0692 61.0521C81.19 60.9121 81.3372 60.7973 81.5023 60.7143C81.6674 60.6313 81.8473 60.5816 82.0315 60.5682C82.2158 60.5547 82.4009 60.5778 82.5763 60.636C82.7517 60.6942 82.9139 60.7864 83.0537 60.9074C83.1935 61.0284 83.3081 61.1758 83.3911 61.3411C83.474 61.5065 83.5236 61.6865 83.537 61.8711C83.5504 62.0556 83.5274 62.241 83.4692 62.4166C83.4111 62.5922 83.319 62.7546 83.1982 62.8946L74.6374 72.8349Z" fill="#D9D9D9"/>
<path d="M78.2898 89.2462L74.1805 85.1285C73.9168 84.864 73.7688 84.5055 73.769 84.1318C73.7693 83.758 73.9178 83.3997 74.1819 83.1356C74.446 82.8716 74.804 82.7233 75.1773 82.7236C75.5505 82.7239 75.9083 82.8726 76.1721 83.137L78.1355 85.1032L84.7273 77.4745C84.9716 77.1914 85.3183 77.0172 85.691 76.99C86.0637 76.9629 86.4319 77.0852 86.7146 77.3299C86.9973 77.5746 87.1713 77.9217 87.1984 78.2949C87.2255 78.6681 87.1034 79.0368 86.8591 79.3199L78.2898 89.2462Z" fill="#D9D9D9"/>
<path d="M112.076 99.4395H104.284V101.161H112.076V99.4395Z" fill="#D9D9D9"/>
<path d="M112.076 99.4395H104.284V101.161H112.076V99.4395Z" fill="url(#paint15_linear_2189_1971)"/>
<path d="M112.14 101.209V107.009C112.141 107.193 112.105 107.375 112.034 107.545C111.964 107.715 111.86 107.869 111.73 107.998C111.599 108.127 111.444 108.23 111.274 108.298C111.104 108.367 110.921 108.402 110.738 108.399H105.624C105.442 108.4 105.261 108.364 105.093 108.294C104.924 108.225 104.771 108.122 104.642 107.993C104.513 107.864 104.41 107.71 104.341 107.542C104.271 107.373 104.235 107.192 104.236 107.009V101.209H112.14Z" fill="#D9D9D9"/>
<path d="M112.14 101.209V107.009C112.141 107.193 112.105 107.375 112.034 107.545C111.964 107.715 111.86 107.869 111.73 107.998C111.599 108.127 111.444 108.23 111.274 108.298C111.104 108.367 110.921 108.402 110.738 108.399H105.624C105.442 108.4 105.261 108.364 105.093 108.294C104.924 108.225 104.771 108.122 104.642 107.993C104.513 107.864 104.41 107.71 104.341 107.542C104.271 107.373 104.235 107.192 104.236 107.009V101.209H112.14Z" fill="url(#paint16_linear_2189_1971)"/>
<defs>
<linearGradient id="paint0_linear_2189_1971" x1="77.7172" y1="133.241" x2="84.0765" y2="-31.5786" gradientUnits="userSpaceOnUse">
<stop stop-color="#010101" stop-opacity="0"/>
<stop offset="0.95" stop-color="#010101"/>
</linearGradient>
<linearGradient id="paint1_linear_2189_1971" x1="138.339" y1="30.711" x2="133.141" y2="30.4029" gradientUnits="userSpaceOnUse">
<stop stop-color="#010101" stop-opacity="0"/>
<stop offset="0.95" stop-color="#010101"/>
</linearGradient>
<linearGradient id="paint2_linear_2189_1971" x1="131.175" y1="80.8536" x2="109.234" y2="79.0048" gradientUnits="userSpaceOnUse">
<stop stop-color="#010101" stop-opacity="0"/>
<stop offset="0.95" stop-color="#010101"/>
</linearGradient>
<linearGradient id="paint3_linear_2189_1971" x1="129.085" y1="63.768" x2="169.85" y2="22.5284" gradientUnits="userSpaceOnUse">
<stop stop-color="#010101" stop-opacity="0"/>
<stop offset="0.95" stop-color="#010101"/>
</linearGradient>
<linearGradient id="paint4_linear_2189_1971" x1="128.852" y1="40.2947" x2="151.269" y2="28.3432" gradientUnits="userSpaceOnUse">
<stop stop-color="#010101" stop-opacity="0"/>
<stop offset="0.95" stop-color="#010101"/>
</linearGradient>
<linearGradient id="paint5_linear_2189_1971" x1="121.301" y1="110.736" x2="116" y2="90.8846" gradientUnits="userSpaceOnUse">
<stop stop-color="#010101" stop-opacity="0"/>
<stop offset="0.95" stop-color="#010101"/>
</linearGradient>
<linearGradient id="paint6_linear_2189_1971" x1="132.216" y1="107.821" x2="126.915" y2="87.969" gradientUnits="userSpaceOnUse">
<stop stop-color="#010101" stop-opacity="0"/>
<stop offset="0.95" stop-color="#010101"/>
</linearGradient>
<linearGradient id="paint7_linear_2189_1971" x1="133.587" y1="25.8974" x2="125.741" y2="29.6809" gradientUnits="userSpaceOnUse">
<stop stop-color="#010101" stop-opacity="0"/>
<stop offset="0.95" stop-color="#010101"/>
</linearGradient>
<linearGradient id="paint8_linear_2189_1971" x1="51.6507" y1="-15.6454" x2="61.1938" y2="136.469" gradientUnits="userSpaceOnUse">
<stop stop-color="white" stop-opacity="0"/>
<stop offset="0.14" stop-color="white" stop-opacity="0.22"/>
<stop offset="0.3" stop-color="white" stop-opacity="0.45"/>
<stop offset="0.45" stop-color="white" stop-opacity="0.65"/>
<stop offset="0.6" stop-color="white" stop-opacity="0.8"/>
<stop offset="0.73" stop-color="white" stop-opacity="0.91"/>
<stop offset="0.85" stop-color="white" stop-opacity="0.98"/>
<stop offset="0.94" stop-color="white"/>
</linearGradient>
<linearGradient id="paint9_linear_2189_1971" x1="19.7665" y1="102.406" x2="150.724" y2="-41.7699" gradientUnits="userSpaceOnUse">
<stop stop-color="#010101" stop-opacity="0"/>
<stop offset="0.95" stop-color="#010101"/>
</linearGradient>
<linearGradient id="paint10_linear_2189_1971" x1="144.953" y1="41.008" x2="-94.0349" y2="136.719" gradientUnits="userSpaceOnUse">
<stop stop-color="white" stop-opacity="0"/>
<stop offset="0.14" stop-color="white" stop-opacity="0.22"/>
<stop offset="0.3" stop-color="white" stop-opacity="0.45"/>
<stop offset="0.45" stop-color="white" stop-opacity="0.65"/>
<stop offset="0.6" stop-color="white" stop-opacity="0.8"/>
<stop offset="0.73" stop-color="white" stop-opacity="0.91"/>
<stop offset="0.85" stop-color="white" stop-opacity="0.98"/>
<stop offset="0.94" stop-color="white"/>
</linearGradient>
<linearGradient id="paint11_linear_2189_1971" x1="115.742" y1="101.664" x2="69.3495" y2="120.243" gradientUnits="userSpaceOnUse">
<stop stop-color="white" stop-opacity="0"/>
<stop offset="0.14" stop-color="white" stop-opacity="0.22"/>
<stop offset="0.3" stop-color="white" stop-opacity="0.45"/>
<stop offset="0.45" stop-color="white" stop-opacity="0.65"/>
<stop offset="0.6" stop-color="white" stop-opacity="0.8"/>
<stop offset="0.73" stop-color="white" stop-opacity="0.91"/>
<stop offset="0.85" stop-color="white" stop-opacity="0.98"/>
<stop offset="0.94" stop-color="white"/>
</linearGradient>
<linearGradient id="paint12_linear_2189_1971" x1="108.477" y1="14.8469" x2="107.771" y2="27.5538" gradientUnits="userSpaceOnUse">
<stop stop-color="white" stop-opacity="0"/>
<stop offset="0.14" stop-color="white" stop-opacity="0.22"/>
<stop offset="0.3" stop-color="white" stop-opacity="0.45"/>
<stop offset="0.45" stop-color="white" stop-opacity="0.65"/>
<stop offset="0.6" stop-color="white" stop-opacity="0.8"/>
<stop offset="0.73" stop-color="white" stop-opacity="0.91"/>
<stop offset="0.85" stop-color="white" stop-opacity="0.98"/>
<stop offset="0.94" stop-color="white"/>
</linearGradient>
<linearGradient id="paint13_linear_2189_1971" x1="107.456" y1="16.4647" x2="111.87" y2="5.30099" gradientUnits="userSpaceOnUse">
<stop stop-color="#010101" stop-opacity="0"/>
<stop offset="0.95" stop-color="#010101"/>
</linearGradient>
<linearGradient id="paint14_linear_2189_1971" x1="57.3699" y1="25.0041" x2="57.1927" y2="16.3586" gradientUnits="userSpaceOnUse">
<stop stop-color="white" stop-opacity="0"/>
<stop offset="0.14" stop-color="white" stop-opacity="0.22"/>
<stop offset="0.3" stop-color="white" stop-opacity="0.45"/>
<stop offset="0.45" stop-color="white" stop-opacity="0.65"/>
<stop offset="0.6" stop-color="white" stop-opacity="0.8"/>
<stop offset="0.73" stop-color="white" stop-opacity="0.91"/>
<stop offset="0.85" stop-color="white" stop-opacity="0.98"/>
<stop offset="0.94" stop-color="white"/>
</linearGradient>
<linearGradient id="paint15_linear_2189_1971" x1="108.101" y1="98.1306" x2="108.633" y2="112.776" gradientUnits="userSpaceOnUse">
<stop stop-color="#010101" stop-opacity="0"/>
<stop offset="0.95" stop-color="#010101"/>
</linearGradient>
<linearGradient id="paint16_linear_2189_1971" x1="108.171" y1="107.377" x2="108.261" y2="88.4065" gradientUnits="userSpaceOnUse">
<stop stop-color="#010101" stop-opacity="0"/>
<stop offset="0.95" stop-color="#010101"/>
</linearGradient>
</defs>
</svg>
